<svg width="18" height="18" viewBox="0 0 18 18" fill="none" xmlns="http://www.w3.org/2000/svg">
<path d="M15.4016 6.59961H8.20156C7.31791 6.59961 6.60156 7.31595 6.60156 8.19961V15.3996C6.60156 16.2833 7.31791 16.9996 8.20156 16.9996H15.4016C16.2852 16.9996 17.0016 16.2833 17.0016 15.3996V8.19961C17.0016 7.31595 16.2852 6.59961 15.4016 6.59961Z" stroke="#222222" stroke-width="2" stroke-linecap="round" stroke-linejoin="round"/>
<path d="M3.4 11.4H2.6C2.17565 11.4 1.76869 11.2314 1.46863 10.9314C1.16857 10.6313 1 10.2243 1 9.8V2.6C1 2.17565 1.16857 1.76869 1.46863 1.46863C1.76869 1.16857 2.17565 1 2.6 1H9.8C10.2243 1 10.6313 1.16857 10.9314 1.46863C11.2314 1.76869 11.4 2.17565 11.4 2.6V3.4" stroke="#222222" stroke-width="2" stroke-linecap="round" stroke-linejoin="round"/>
</svg>
