<svg width="60" height="60" viewBox="0 0 60 60" fill="none" xmlns="http://www.w3.org/2000/svg">
<path d="M39.4333 16.6673H25V13.334H37.9667C37.4956 11.6567 37.3842 9.89881 37.6398 8.17549C37.8955 6.45216 38.5123 4.8023 39.45 3.33398H13.3333C12.4493 3.33398 11.6014 3.68517 10.9763 4.31029C10.3512 4.93542 10 5.78326 10 6.66732V53.334C10 54.218 10.3512 55.0659 10.9763 55.691C11.6014 56.3161 12.4493 56.6673 13.3333 56.6673H46.6667C47.5507 56.6673 48.3986 56.3161 49.0237 55.691C49.6488 55.0659 50 54.218 50 53.334V22.5007C47.8892 22.501 45.8127 21.9661 43.9648 20.9459C42.1169 19.9258 40.5578 18.4537 39.4333 16.6673ZM21.6667 43.334H18.3333V40.0006H21.6667V43.334ZM21.6667 36.6673H18.3333V33.334H21.6667V36.6673ZM21.6667 30.0007H18.3333V26.6673H21.6667V30.0007ZM21.6667 23.334H18.3333V20.0007H21.6667V23.334ZM21.6667 16.6673H18.3333V13.334H21.6667V16.6673ZM41.6667 43.334H25V40.0006H41.6667V43.334ZM41.6667 36.6673H25V33.334H41.6667V36.6673ZM41.6667 30.0007H25V26.6673H41.6667V30.0007ZM41.6667 23.334H25V20.0007H41.6667V23.334Z" fill="#D31019"/>
<path d="M50.0013 18.3327C54.6037 18.3327 58.3346 14.6017 58.3346 9.99935C58.3346 5.39698 54.6037 1.66602 50.0013 1.66602C45.3989 1.66602 41.668 5.39698 41.668 9.99935C41.668 14.6017 45.3989 18.3327 50.0013 18.3327Z" fill="#D31019"/>
</svg>
