<svg width="34" height="34" viewBox="0 0 34 34" fill="none" xmlns="http://www.w3.org/2000/svg">
<path d="M24.9537 21.981C27.0113 19.1732 27.9329 15.692 27.5341 12.2339C27.1352 8.77581 25.4454 5.59581 22.8027 3.33012C20.1599 1.06443 16.7591 -0.119873 13.2807 0.0141574C9.80224 0.148188 6.50267 1.59066 4.0421 4.053C1.58153 6.51533 0.141415 9.81593 0.00987388 13.2945C-0.121667 16.773 1.06507 20.1729 3.33265 22.8141C5.60023 25.4552 8.78144 27.1427 12.2398 27.5391C15.6982 27.9354 19.1787 27.0114 21.985 24.9517H21.9829C22.0467 25.0367 22.1147 25.1175 22.1912 25.1961L30.3724 33.3773C30.7709 33.7761 31.3114 34.0002 31.8751 34.0004C32.4388 34.0006 32.9795 33.7769 33.3782 33.3784C33.777 32.98 34.0011 32.4394 34.0013 31.8757C34.0015 31.312 33.7777 30.7713 33.3793 30.3726L25.198 22.1913C25.1221 22.1144 25.0404 22.0434 24.9537 21.9788V21.981ZM25.5019 13.8125C25.5019 15.3473 25.1996 16.8671 24.6122 18.2851C24.0249 19.7031 23.164 20.9915 22.0787 22.0768C20.9934 23.1621 19.705 24.023 18.287 24.6103C16.869 25.1977 15.3492 25.5 13.8144 25.5C12.2796 25.5 10.7598 25.1977 9.34179 24.6103C7.9238 24.023 6.63538 23.1621 5.5501 22.0768C4.46481 20.9915 3.60392 19.7031 3.01657 18.2851C2.42921 16.8671 2.12691 15.3473 2.12691 13.8125C2.12691 10.7128 3.35827 7.73999 5.5501 5.54816C7.74193 3.35633 10.7147 2.12497 13.8144 2.12497C16.9141 2.12497 19.8869 3.35633 22.0787 5.54816C24.2705 7.73999 25.5019 10.7128 25.5019 13.8125Z" fill="#BEBDBD"/>
</svg>
