<svg width="60" height="40" viewBox="0 0 60 40" fill="none" xmlns="http://www.w3.org/2000/svg">
<path d="M60 26.5C60 28 57 29 53.5 29.5C51.25 25.25 46.75 22 41.5 19.75C42 19 42.5 18.5 43 17.75H45C52.75 17.5 60 22.25 60 26.5ZM17 17.5H15C7.25 17.5 0 22.25 0 26.5C0 28 3 29 6.5 29.5C8.75 25.25 13.25 22 18.5 19.75L17 17.5ZM30 20C35.5 20 40 15.5 40 10C40 4.5 35.5 0 30 0C24.5 0 20 4.5 20 10C20 15.5 24.5 20 30 20ZM30 22.5C19.75 22.5 10 29 10 35C10 40 30 40 30 40C30 40 50 40 50 35C50 29 40.25 22.5 30 22.5ZM44.25 15H45C49.25 15 52.5 11.75 52.5 7.5C52.5 3.25 49.25 0 45 0C43.75 0 42.75 0.25 41.75 0.75C43.75 3.25 45 6.5 45 10C45 11.75 44.75 13.5 44.25 15ZM15 15H15.75C15.25 13.5 15 11.75 15 10C15 6.5 16.25 3.25 18.25 0.75C17.25 0.25 16.25 0 15 0C10.75 0 7.5 3.25 7.5 7.5C7.5 11.75 10.75 15 15 15Z" fill="#D31019"/>
</svg>
