<svg width="60" height="60" viewBox="0 0 60 60" fill="none" xmlns="http://www.w3.org/2000/svg">
<path d="M30 60C37.9565 60 45.5871 56.8393 51.2132 51.2132C56.8393 45.5871 60 37.9565 60 30C60 22.0435 56.8393 14.4129 51.2132 8.7868C45.5871 3.16071 37.9565 0 30 0C22.0435 0 14.4129 3.16071 8.7868 8.7868C3.16071 14.4129 0 22.0435 0 30C0 37.9565 3.16071 45.5871 8.7868 51.2132C14.4129 56.8393 22.0435 60 30 60ZM13.125 18.75H46.875C47.3723 18.75 47.8492 18.9475 48.2008 19.2992C48.5525 19.6508 48.75 20.1277 48.75 20.625C48.75 21.1223 48.5525 21.5992 48.2008 21.9508C47.8492 22.3025 47.3723 22.5 46.875 22.5H13.125C12.6277 22.5 12.1508 22.3025 11.7992 21.9508C11.4475 21.5992 11.25 21.1223 11.25 20.625C11.25 20.1277 11.4475 19.6508 11.7992 19.2992C12.1508 18.9475 12.6277 18.75 13.125 18.75ZM18.75 31.875C18.75 31.3777 18.9475 30.9008 19.2992 30.5492C19.6508 30.1975 20.1277 30 20.625 30H39.375C39.8723 30 40.3492 30.1975 40.7008 30.5492C41.0525 30.9008 41.25 31.3777 41.25 31.875C41.25 32.3723 41.0525 32.8492 40.7008 33.2008C40.3492 33.5525 39.8723 33.75 39.375 33.75H20.625C20.1277 33.75 19.6508 33.5525 19.2992 33.2008C18.9475 32.8492 18.75 32.3723 18.75 31.875ZM26.25 43.125C26.25 42.6277 26.4475 42.1508 26.7992 41.7992C27.1508 41.4475 27.6277 41.25 28.125 41.25H31.875C32.3723 41.25 32.8492 41.4475 33.2008 41.7992C33.5525 42.1508 33.75 42.6277 33.75 43.125C33.75 43.6223 33.5525 44.0992 33.2008 44.4508C32.8492 44.8025 32.3723 45 31.875 45H28.125C27.6277 45 27.1508 44.8025 26.7992 44.4508C26.4475 44.0992 26.25 43.6223 26.25 43.125Z" fill="#D31019"/>
</svg>
